<?xml version="1.0" standalone="no"?>
<!DOCTYPE svg PUBLIC "-//W3C//DTD SVG 20010904//EN"
 "http://www.w3.org/TR/2001/REC-SVG-20010904/DTD/svg10.dtd">
<svg version="1.0" xmlns="http://www.w3.org/2000/svg"
 width="50.000000pt" height="48.000000pt" viewBox="0 0 50.000000 48.000000"
 preserveAspectRatio="xMidYMid meet">

<g transform="translate(0.000000,48.000000) scale(0.100000,-0.100000)"
fill="#000000" stroke="none">
<path d="M251 414 c0 -11 3 -14 6 -6 3 7 2 16 -1 19 -3 4 -6 -2 -5 -13z"/>
<path d="M232 390 c0 -14 2 -19 5 -12 2 6 2 18 0 25 -3 6 -5 1 -5 -13z"/>
<path d="M250 374 c0 -8 5 -12 10 -9 6 4 8 11 5 16 -9 14 -15 11 -15 -7z"/>
<path d="M200 360 c0 -5 5 -10 10 -10 6 0 10 5 10 10 0 6 -4 10 -10 10 -5 0
-10 -4 -10 -10z"/>
<path d="M160 350 c-13 -8 -12 -12 4 -27 16 -14 17 -14 7 -1 -7 10 -8 19 -2
22 5 3 11 0 14 -6 2 -7 7 -10 11 -7 12 11 -19 28 -34 19z"/>
<path d="M316 333 c-6 -14 -5 -15 5 -6 7 7 10 15 7 18 -3 3 -9 -2 -12 -12z"/>
<path d="M206 288 c-9 -10 -16 -23 -16 -28 0 -15 17 -12 24 5 7 19 45 19 66 0
16 -14 18 -14 23 5 6 24 -7 34 -50 35 -19 1 -38 -6 -47 -17z m89 2 c3 -5 1
-10 -4 -10 -6 0 -11 5 -11 10 0 6 2 10 4 10 3 0 8 -4 11 -10z"/>
<path d="M360 300 c-9 -6 -10 -10 -3 -10 6 0 15 5 18 10 8 12 4 12 -15 0z"/>
<path d="M70 288 c0 -9 5 -20 10 -23 13 -8 13 5 0 25 -8 13 -10 13 -10 -2z"/>
<path d="M390 290 c-9 -6 -10 -10 -3 -10 6 0 15 5 18 10 8 12 4 12 -15 0z"/>
<path d="M415 256 c-25 -11 -34 -25 -53 -83 -26 -81 -27 -96 -8 -112 11 -9 15
2 24 56 8 46 21 81 41 110 17 24 30 43 28 43 -1 -1 -16 -7 -32 -14z"/>
<path d="M81 212 c22 -35 32 -66 34 -99 5 -83 5 -80 16 -60 6 9 14 15 18 12
13 -7 5 39 -19 112 -13 37 -23 69 -24 70 -1 1 -14 5 -29 8 l-28 7 32 -50z"/>
<path d="M171 222 c8 -12 15 -18 17 -12 2 5 8 10 13 10 6 0 7 -4 4 -10 -3 -6
1 -7 10 -4 12 5 13 9 4 20 -8 10 -15 11 -24 4 -8 -6 -16 -5 -24 3 -10 9 -10 6
0 -11z"/>
<path d="M269 224 c-14 -17 2 -19 19 -2 9 9 12 8 12 -6 0 -15 3 -16 15 -6 8 7
15 15 15 19 0 12 -50 8 -61 -5z"/>
<path d="M231 88 c-10 -28 -4 -48 14 -48 19 0 24 11 18 43 -6 33 -21 35 -32 5z"/>
</g>
</svg>
